<svg xmlns="http://www.w3.org/2000/svg" width="137.852" height="37.503" viewBox="0 0 137.852 37.503">
    <defs>
        <style>
            .cls-1,.cls-2{fill:#008579;fill-rule:evenodd}.cls-2{fill:#fff}
        </style>
    </defs>
    <g id="ICON_positive_logo" transform="translate(0 -6.379)">
        <g id="Page-1" transform="translate(0 6)">
            <path id="Fill-1" d="M119.142.38a18.686 18.686 0 0 0-16.707 10.345 18.663 18.663 0 0 0-33.507.19 18.663 18.663 0 0 0-33.509-.186 18.752 18.752 0 1 0 0 16.806 18.663 18.663 0 0 0 33.509-.186 18.663 18.663 0 0 0 33.507.19A18.715 18.715 0 1 0 119.142.38" class="cls-1"/>
            <path id="Fill-4" d="M85.8 25.291A6.29 6.29 0 1 1 92.073 19a6.291 6.291 0 0 1-6.271 6.29m0-17.206A10.916 10.916 0 1 0 96.691 19 10.9 10.9 0 0 0 85.8 8.085" class="cls-2"/>
            <path id="Fill-6" d="M110.592 29.994h-.192V10.565a2.343 2.343 0 0 1 2.417-2.51 2.928 2.928 0 0 1 2.019 1.058l9.112 12.187V10.565a2.416 2.416 0 1 1 4.828 0v16.873a2.338 2.338 0 0 1-2.412 2.509 2.991 2.991 0 0 1-2.021-1.055l-9.112-12.041v13.143z" class="cls-2"/>
            <path id="Fill-8" d="M59.589 24.276a2.312 2.312 0 0 0-1.928-1.059 2.159 2.159 0 0 0-1.2.354l.25.385-.307-.342A6.286 6.286 0 1 1 52.2 12.649a6.391 6.391 0 0 1 5.517 3.1l.3.527 3.213-3.321-.228-.312a10.9 10.9 0 1 0-1.939 14.91 2.267 2.267 0 0 0 .626-3.11z" class="cls-2"/>
            <path id="Fill-10" d="M18.669 7.726h-.194A2.267 2.267 0 0 0 16.211 10v20.261h4.722V10a2.268 2.268 0 0 0-2.264-2.27" class="cls-2"/>
        </g>
    </g>
</svg>
